<svg width="29" height="29" viewBox="0 0 29 29" fill="none" xmlns="http://www.w3.org/2000/svg">
<path d="M19.3144 24.1665C19.3144 26.8359 17.1506 28.9997 14.4812 28.9997C11.8118 28.9997 9.64771 26.8359 9.64771 24.1665C9.64771 21.4971 11.8118 19.333 14.4812 19.333C17.1506 19.333 19.3144 21.4971 19.3144 24.1665Z" fill="#FFA000"/>
<path d="M14.4812 4.83326C13.8141 4.83326 13.2727 4.29208 13.2727 3.625V1.20826C13.2727 0.541405 13.8141 0 14.4812 0C15.148 0 15.6894 0.541405 15.6894 1.20826V3.625C15.6894 4.29208 15.148 4.83326 14.4812 4.83326Z" fill="#FFA000"/>
<path d="M25.8142 20.4356C23.9871 18.8912 22.9394 16.6353 22.9394 14.244V10.8753C22.9394 6.21103 19.1441 2.41699 14.4812 2.41699C9.81807 2.41699 6.02271 6.21103 6.02271 10.8753V14.244C6.02271 16.6353 4.97507 18.8926 3.13735 20.4464C2.66719 20.8475 2.39771 21.4336 2.39771 22.0523C2.39771 23.2185 3.34621 24.167 4.51244 24.167H24.4499C25.6159 24.167 26.5644 23.2185 26.5644 22.0523C26.5644 21.4336 26.295 20.8475 25.8142 20.4356Z" fill="#FFC107"/>
</svg>
