<svg width="21" height="23" viewBox="0 0 21 23" fill="none" xmlns="http://www.w3.org/2000/svg">
<path d="M7.06941 16.8017L6.18012 15.3588L4.30238 15.6962L6.7719 11.3164H1.95642V22.8349H10.1616V11.3164L7.06941 16.8017Z" fill="#871B12"/>
<path d="M20.5744 5.82019H15.1257C15.4444 5.65599 15.7289 5.48447 15.9809 5.30239C16.9498 4.60819 17.4644 3.72866 17.4627 2.85563C17.4627 2.13949 17.1238 1.11364 16.6312 0.686067C16.1378 0.253617 15.4834 0 14.7851 0C14.0389 0 13.3455 0.256056 12.7513 0.654365C11.858 1.25264 11.1589 2.54837 10.6606 3.53682C10.6354 3.58641 10.6102 3.63437 10.5858 3.68233C10.4037 3.30109 10.1908 2.5378 9.94934 2.18989C9.52664 1.58673 9.01859 1.05349 8.42194 0.654365C7.82935 0.256056 7.13679 0 6.39138 0C5.64841 0.00243863 4.96803 0.31377 4.45917 0.79418C3.95275 1.26971 3.59834 2.34027 3.59508 3.10519C3.59183 3.55146 3.72189 4.01886 3.99096 4.44399C4.32911 4.97643 4.8648 5.44058 5.60451 5.82019H0.588257L0.599637 10.4007H10.0192V5.82019H11.167V10.4007H20.5883L20.5744 5.82019ZM5.92966 4.3879C5.55168 4.14892 5.31919 3.90912 5.18263 3.69371C5.05013 3.47992 5.0038 3.10437 5.0038 2.91985C5.00055 2.61177 5.15418 2.07121 5.42731 1.81759C5.69393 1.56316 6.05647 1.40628 6.38162 1.40628H6.39138C6.81001 1.40953 7.22458 1.54934 7.64239 1.82491C8.26424 2.23541 8.85033 3.35149 9.25758 4.16924C9.47055 4.58543 9.63313 5.02032 9.74286 5.44546C7.85618 5.25037 6.63687 4.83417 5.92966 4.3879ZM12.3782 3.39213C12.718 2.90522 13.1187 2.1021 13.5341 1.82491C13.9471 1.54934 14.3665 1.40953 14.7851 1.40628H14.7892C15.1379 1.40628 15.4736 1.54284 15.7021 1.74524C15.9313 1.9509 16.054 2.32726 16.054 2.59226C16.0492 2.90522 15.8874 3.62543 15.1566 4.15949C14.4632 4.6651 13.2594 5.1829 11.4084 5.54544C11.5832 4.81141 11.9254 4.0343 12.3782 3.39213Z" fill="#871B12"/>
<path d="M16.884 15.6775L15.0071 15.3588L14.1211 16.8188L11.0687 11.3904V22.8349H19.2324V11.3164H14.417L16.884 15.6775Z" fill="#871B12"/>
</svg>
