<svg width="121" height="170" viewBox="0 0 121 170" fill="none" xmlns="http://www.w3.org/2000/svg">
<path d="M45.8212 -0.00010563L23.7744 15.209L32.5904 27.9884L54.6372 12.7794L45.8212 -0.00010563Z" fill="#EAEAEA"/>
<path d="M40.9402 16.8226L25.8978 15.5332C25.866 15.5304 25.835 15.5214 25.8068 15.5067C25.7785 15.492 25.7534 15.4717 25.7329 15.4473C25.7125 15.4228 25.6971 15.3945 25.6876 15.364C25.6782 15.3335 25.6748 15.3015 25.6778 15.2697C25.6833 15.2052 25.7141 15.1456 25.7635 15.1038C25.8128 15.0619 25.8767 15.0414 25.9411 15.0465L40.5809 16.2864L44.6699 1.97516C44.6755 1.94115 44.6883 1.90872 44.7073 1.88C44.7264 1.85127 44.7513 1.82689 44.7804 1.80845C44.8095 1.79002 44.8422 1.77794 44.8763 1.77302C44.9104 1.76809 44.9451 1.77043 44.9783 1.77988C45.0114 1.78932 45.0422 1.80565 45.0686 1.82782C45.095 1.84998 45.1164 1.87746 45.1314 1.90848C45.1465 1.93949 45.1548 1.97334 45.1559 2.0078C45.1569 2.04226 45.1507 2.07655 45.1376 2.10844L40.9402 16.8226Z" fill="#B6B9BA"/>
<path d="M33.0755 26.5603C33.0486 26.5633 33.0215 26.5633 32.9947 26.5603C32.9252 26.5525 32.8618 26.5198 32.8183 26.4692C32.7748 26.4186 32.7547 26.3543 32.7623 26.2901L34.0016 16.1563C34.0092 16.0917 34.0444 16.0325 34.0993 15.9917C34.1543 15.9509 34.2245 15.9319 34.2946 15.9389C34.3643 15.9467 34.428 15.9793 34.4721 16.0298C34.5161 16.0803 34.537 16.1446 34.5304 16.2091L33.2877 26.3429C33.2818 26.3952 33.2581 26.4444 33.22 26.4834C33.1818 26.5225 33.1312 26.5494 33.0755 26.5603Z" fill="#B6B9BA"/>
<path d="M52.9039 12.3904C52.8673 12.3972 52.8293 12.3972 52.7926 12.3904L42.6876 10.1612C42.6558 10.1542 42.626 10.1419 42.5998 10.125C42.5736 10.1081 42.5515 10.087 42.5348 10.0627C42.5181 10.0385 42.5071 10.0117 42.5025 9.98384C42.4979 9.95597 42.4997 9.92759 42.5078 9.90033C42.516 9.87306 42.5303 9.84744 42.55 9.82493C42.5697 9.80242 42.5943 9.78346 42.6225 9.76912C42.6508 9.75479 42.682 9.74537 42.7144 9.7414C42.7469 9.73743 42.7799 9.73898 42.8117 9.74598L52.9326 11.9697C52.9659 11.9766 52.9973 11.9893 53.0247 12.007C53.0522 12.0247 53.0751 12.047 53.092 12.0726C53.109 12.0982 53.1197 12.1265 53.1235 12.1558C53.1273 12.1851 53.124 12.2147 53.1139 12.2429C53.0987 12.282 53.0709 12.3166 53.0337 12.3427C52.9966 12.3688 52.9516 12.3853 52.9039 12.3904Z" fill="#B6B9BA"/>
<path d="M64.3375 31.875H5.6106C2.51195 31.875 0 34.3724 0 37.4531V163.537C0 166.618 2.51195 169.115 5.6106 169.115H64.3375C67.4361 169.115 69.9481 166.618 69.9481 163.537V37.4531C69.9481 34.3724 67.4361 31.875 64.3375 31.875Z" fill="#454BAE"/>
<path d="M73.4894 37.4561V163.537C73.4886 165.016 72.9047 166.434 71.8659 167.48C70.8272 168.526 69.4186 169.114 67.9496 169.115H9.97266C9.24454 169.116 8.52333 168.973 7.85033 168.693C7.17733 168.413 6.56575 168.002 6.05061 167.484C5.53547 166.966 5.12686 166.351 4.84822 165.673C4.56958 164.996 4.42637 164.27 4.42677 163.537V37.4561C4.42557 36.7226 4.56823 35.9961 4.84655 35.3182C5.12487 34.6403 5.53339 34.0244 6.04865 33.5059C6.56391 32.9874 7.17577 32.5764 7.84915 32.2965C8.52253 32.0166 9.24417 31.8734 9.97266 31.875H67.9496C68.6774 31.875 69.398 32.0194 70.0703 32.2999C70.7426 32.5804 71.3534 32.9916 71.8679 33.5099C72.3824 34.0282 72.7904 34.6435 73.0686 35.3206C73.3468 35.9977 73.4898 36.7233 73.4894 37.4561Z" fill="#758BF2"/>
<path d="M2.21322 47.8125C2.09608 47.8125 1.98372 47.8972 1.90074 48.048C1.81776 48.1988 1.77094 48.4034 1.77051 48.617V69.1405C1.77051 69.3547 1.81714 69.56 1.90017 69.7115C1.98319 69.8629 2.0958 69.948 2.21322 69.948C2.33063 69.948 2.44324 69.8629 2.52627 69.7115C2.60929 69.56 2.65593 69.3547 2.65593 69.1405V48.617C2.65593 48.5111 2.64446 48.4062 2.62219 48.3084C2.59993 48.2107 2.5673 48.1218 2.52617 48.0471C2.48504 47.9724 2.43621 47.9132 2.38251 47.8729C2.32881 47.8326 2.27128 47.8121 2.21322 47.8125Z" fill="white"/>
<path d="M70.8337 36.8514V163.252C70.8348 163.384 70.8266 163.515 70.8092 163.645C70.7725 164.023 70.6689 164.391 70.5032 164.733C70.26 165.243 69.8788 165.676 69.403 165.981C68.9272 166.286 68.3756 166.451 67.8108 166.458H9.22738C8.83363 166.456 8.44423 166.376 8.0818 166.222C7.71937 166.067 7.39117 165.843 7.11624 165.56C6.5211 164.941 6.19164 164.112 6.19834 163.252V36.8514C6.1955 36.2596 6.35306 35.678 6.65423 35.1688C6.91588 34.7158 7.28733 34.3363 7.73426 34.0654C8.18705 33.7899 8.70682 33.6447 9.23657 33.6455H67.8077C68.5507 33.6614 69.2632 33.9449 69.8144 34.4442C70.3657 34.9435 70.7189 35.6251 70.8092 36.3641C70.8092 36.4315 70.8276 36.499 70.8276 36.5695C70.8259 36.5929 70.8259 36.6165 70.8276 36.6399C70.8307 36.7074 70.8337 36.7779 70.8337 36.8514Z" fill="#FFE164"/>
<g style="mix-blend-mode:color-dodge">
<path d="M39.2258 103.916C43.1434 111.257 62.2607 149.988 62.9824 152.698C63.4351 154.399 66.998 160.939 69.5853 165.573C69.9243 165.309 70.2071 164.981 70.4172 164.606C70.6273 164.231 70.7603 163.819 70.8086 163.392C70.826 163.262 70.8341 163.131 70.833 163V109.945C65.7532 104.809 60.6306 99.1993 59.4165 95.1494C57.0249 87.1781 51.8687 76.304 49.9053 68.9077C47.9419 61.5114 44.3331 56.807 40.9568 50.9493C38.8955 47.3766 36.9229 39.3563 35.6934 33.6455H12.3955C12.3955 33.6455 25.4666 51.5825 29.7696 63.0837C34.0726 74.5849 35.3081 96.584 39.2258 103.916Z" fill="#181B1C"/>
</g>
<path d="M61.2674 85H21.0772C18.7278 85 16.8232 86.8963 16.8232 89.2355V98.4729C16.8232 100.812 18.7278 102.708 21.0772 102.708H61.2674C63.6167 102.708 65.5213 100.812 65.5213 98.4729V89.2355C65.5213 86.8963 63.6167 85 61.2674 85Z" fill="#FFC866"/>
<path d="M58.6111 82.3438H18.4209C16.0715 82.3438 14.167 84.24 14.167 86.5792V95.8166C14.167 98.1558 16.0715 100.052 18.4209 100.052H58.6111C60.9605 100.052 62.865 98.1558 62.865 95.8166V86.5792C62.865 84.24 60.9605 82.3438 58.6111 82.3438Z" fill="#F25C5C"/>
<path d="M28.3287 91.1316C28.2835 90.2682 28.2292 89.2295 28.2382 88.4552H28.202C27.9939 89.1834 27.7406 89.9547 27.436 90.809L26.3593 93.8173H25.7561L24.7728 90.8643C24.4712 89.9916 24.239 89.1927 24.0671 88.4552H24.049C24.0309 89.2295 23.9856 90.2682 23.9314 91.1962L23.7715 93.8542H23.0205L23.4458 87.6562H24.4471L25.4846 90.6523C25.738 91.4174 25.9461 92.0965 26.0878 92.7418H26.1149C26.2657 92.1272 26.4829 91.4359 26.7543 90.6523L27.8371 87.6562H28.8384L29.2184 93.8542H28.4524L28.3287 91.1316Z" fill="white"/>
<path d="M30.7262 91.9029L30.0685 93.8542H29.2188L31.3777 87.6562H32.366L34.5313 93.8542H33.6563L32.9765 91.9029H30.7262ZM32.8097 91.2883L32.1803 89.503C32.0387 89.1005 31.9443 88.7317 31.8656 88.3722H31.8467C31.7523 88.741 31.6515 89.1189 31.532 89.4938L30.9025 91.2883H32.8097Z" fill="white"/>
<path d="M36.3024 87.6562V93.8542H35.417V87.6562H36.3024Z" fill="white"/>
<path d="M38.0732 87.6562H38.6888V93.1819H40.7295V93.8542H38.0732V87.6562Z" fill="white"/>
<path d="M43.3854 87.6562V93.8542H42.5V87.6562H43.3854Z" fill="white"/>
<path d="M44.2705 93.845V87.6562H45.2699L47.5352 90.7859C48.0083 91.4317 48.4323 92.1041 48.8046 92.7987H48.8256C48.7415 91.9703 48.7204 91.2185 48.7204 90.2551V87.6654H49.583V93.8542H48.6573L46.4131 90.7123C45.9245 90.0483 45.483 89.3587 45.091 88.6473H45.0595C45.1121 89.4297 45.1331 90.1814 45.1331 91.2001V93.845H44.2705Z" fill="white"/>
<path d="M54.8955 93.5073C54.258 93.7223 53.5865 93.835 52.9091 93.8407C52.4676 93.8812 52.022 93.8303 51.6037 93.6917C51.1855 93.5531 50.8048 93.3302 50.4886 93.0386C50.1723 92.7471 49.9282 92.394 49.7735 92.0043C49.6187 91.6146 49.5571 91.1979 49.5929 90.7834C49.5929 88.9815 50.9258 87.6571 53.0917 87.6571C53.6405 87.6461 54.1858 87.7412 54.6937 87.9364L54.4918 88.5731C54.0417 88.3889 53.5539 88.2997 53.0629 88.3118C51.4897 88.3118 50.4644 89.2308 50.4644 90.7474C50.4644 92.264 51.4512 93.192 52.9571 93.192C53.3354 93.2105 53.7137 93.1563 54.0689 93.0328V91.2309H52.7552V90.6032H54.8955V93.5073Z" fill="white"/>
<path d="M42.1382 147.584C43.3542 146.368 43.3542 144.396 42.1382 143.18C40.9223 141.964 38.9508 141.964 37.7349 143.18C36.5189 144.396 36.5189 146.368 37.7349 147.584C38.9508 148.799 40.9223 148.799 42.1382 147.584Z" fill="white"/>
<path d="M20.8764 144.323H28.7063C28.8421 144.323 28.9724 144.229 29.0684 144.063C29.1645 143.897 29.2184 143.672 29.2184 143.437C29.2184 143.202 29.1645 142.977 29.0684 142.811C28.9724 142.645 28.8421 142.552 28.7063 142.552H20.8764C20.7406 142.552 20.6103 142.645 20.5143 142.811C20.4182 142.977 20.3643 143.202 20.3643 143.437C20.3643 143.672 20.4182 143.897 20.5143 144.063C20.6103 144.229 20.7406 144.323 20.8764 144.323Z" fill="white"/>
<path d="M28.7063 144.323H20.8764C20.7406 144.323 20.6103 144.417 20.5143 144.583C20.4182 144.749 20.3643 144.974 20.3643 145.209C20.3643 145.443 20.4182 145.669 20.5143 145.835C20.6103 146.001 20.7406 146.094 20.8764 146.094H28.7063C28.8421 146.094 28.9724 146.001 29.0684 145.835C29.1645 145.669 29.2184 145.443 29.2184 145.209C29.2184 144.974 29.1645 144.749 29.0684 144.583C28.9724 144.417 28.8421 144.323 28.7063 144.323Z" fill="white"/>
<path d="M28.7063 146.979H20.8764C20.7406 146.979 20.6103 147.026 20.5143 147.109C20.4182 147.192 20.3643 147.305 20.3643 147.422C20.3643 147.54 20.4182 147.652 20.5143 147.735C20.6103 147.818 20.7406 147.865 20.8764 147.865H28.7063C28.8421 147.865 28.9724 147.818 29.0684 147.735C29.1645 147.652 29.2184 147.54 29.2184 147.422C29.2184 147.305 29.1645 147.192 29.0684 147.109C28.9724 147.026 28.8421 146.979 28.7063 146.979Z" fill="white"/>
<path d="M53.1259 142.864V147.552C53.1215 147.609 53.1333 147.667 53.1597 147.717C53.1862 147.767 53.2261 147.808 53.2743 147.834C53.3225 147.86 53.3769 147.869 53.4303 147.862C53.4838 147.854 53.5339 147.83 53.5743 147.792L56.5452 145.45C56.5825 145.424 56.6132 145.388 56.6344 145.346C56.6556 145.304 56.6667 145.257 56.6667 145.209C56.6667 145.162 56.6556 145.115 56.6344 145.073C56.6132 145.03 56.5825 144.995 56.5452 144.968L53.5743 142.624C53.5339 142.586 53.4838 142.562 53.4303 142.554C53.3769 142.547 53.3225 142.556 53.2743 142.582C53.2261 142.608 53.1862 142.649 53.1597 142.699C53.1333 142.749 53.1215 142.807 53.1259 142.864Z" fill="white"/>
<path d="M85.1314 168.641C85.8353 168.357 85.9243 167.749 86.2243 167.183C86.2451 167.143 86.3609 166.334 86.3609 166.266C86.3609 165.983 87.2164 165.238 87.6144 165.824C88.3955 166.976 89.2538 165.176 89.2092 165.657C89.0726 167.089 89.7617 169.396 89.2092 169.555C88.0212 169.889 82.4524 170.277 82.3455 169.719C82.2831 169.385 83.9196 169.15 85.1314 168.641Z" fill="#404859"/>
<path d="M97.5286 168.641C98.2326 168.357 98.3217 167.749 98.6217 167.183C98.6425 167.143 98.7583 166.334 98.7583 166.266C98.7583 165.983 99.6137 165.238 100.012 165.824C100.793 166.976 101.651 165.176 101.604 165.657C101.47 167.089 102.159 169.396 101.604 169.555C100.416 169.889 94.8464 170.277 94.7425 169.719C94.6712 169.385 96.3108 169.15 97.5286 168.641Z" fill="#404859"/>
<path d="M99.0775 111.567C97.6251 108.391 86.5944 104.28 83.6866 103.594C83.4721 106.791 81.986 108.782 80.2242 112.232C77.7729 117.05 84.5139 165.573 84.5139 165.573H90.5532L89.0211 120.508L96.9142 165.573H102.708C102.708 165.573 100.754 115.207 99.0775 111.567Z" fill="#7F635D"/>
<path d="M87.6391 88.3368C88.0982 94.2043 79.467 108.101 72.3367 108.02C68.3884 107.98 66.3936 101.403 65.4722 96.3257C64.6047 91.5455 64.1234 88.0337 65.4975 87.89C67.6284 87.6619 73.4575 99.9875 73.4575 99.9875C73.4575 99.9875 80.9298 89.0023 84.7451 87.4026C88.038 86.031 87.5472 87.1464 87.6391 88.3368Z" fill="#FF867A"/>
<path d="M87.6399 88.652C87.5521 87.5089 87.6399 85.9518 84.5012 87.2809C81.868 88.391 77.4884 94.1245 75.2607 97.2208C75.6572 98.625 76.8922 101.796 80.279 103.593C84.5466 99.216 87.9244 92.3094 87.6399 88.652Z" fill="#D8D8D8"/>
<path d="M100.533 115.989L81.459 116.46C81.459 116.46 86.1086 119.33 93.8655 119.966C96.8555 120.208 99.193 120.342 100.938 120.416C100.789 118.765 100.653 117.271 100.533 115.989Z" fill="#514240"/>
<path d="M100.546 104.88C101.031 97.84 102.304 93.9527 101.631 91.5502C100.772 88.4679 96.269 86.3672 93.6918 86.0105C91.5745 85.7056 86.3804 85.8977 84.4825 87.23C81.4575 89.3642 79.6875 115.606 79.6875 115.606C79.6875 115.606 82.1733 117.249 89.0978 118.133C98.1243 119.286 101.18 118.133 101.18 118.133C101.18 118.133 99.9704 113.227 100.546 104.88Z" fill="#EAEAEA"/>
<path d="M91.851 98.5799L89.6617 98.7518C89.4613 98.7675 89.3116 98.9427 89.3273 99.1431L89.8163 105.37C89.832 105.57 90.0072 105.72 90.2076 105.704L92.3969 105.532C92.5973 105.516 92.747 105.341 92.7312 105.141L92.2423 98.9142C92.2266 98.7138 92.0514 98.5641 91.851 98.5799Z" fill="#434A59"/>
<path d="M92.0823 104.868L92.0537 104.573L91.5735 99.4596C91.5654 99.3753 91.5177 99.2972 91.4408 99.2423C91.3639 99.1875 91.264 99.1604 91.1633 99.167L88.8928 99.316C88.7926 99.3228 88.6996 99.3623 88.6342 99.4261C88.5687 99.4899 88.5359 99.5726 88.5429 99.6565V99.6858L89.0168 104.727V104.772L89.0454 105.07C89.049 105.112 89.0624 105.153 89.0848 105.19C89.1073 105.227 89.1383 105.26 89.1761 105.287C89.214 105.315 89.2578 105.335 89.3053 105.348C89.3527 105.361 89.4027 105.366 89.4525 105.363L91.723 105.214C91.774 105.212 91.8239 105.201 91.8698 105.182C91.9157 105.163 91.9566 105.137 91.9901 105.105C92.0236 105.072 92.0491 105.035 92.0649 104.994C92.0807 104.954 92.0866 104.911 92.0823 104.868Z" fill="#54678C"/>
<path d="M100.941 90.3125C100.941 90.3125 112.385 105.981 109.248 112.237C105.875 118.968 91.1747 106.608 92.1284 103.976C92.8459 101.995 103.459 106.976 103.459 106.976C103.459 106.976 98.0404 98.3121 98.2826 94.239C98.4911 90.7211 100.941 90.3125 100.941 90.3125Z" fill="#FF867A"/>
<path d="M93.8545 103.366C93.4523 102.887 93.1217 102.347 92.8739 101.766C92.6409 101.133 92.4983 99.6662 92.2549 100.147C92.0115 100.627 92.3835 102.34 92.0462 102.499C91.709 102.658 89.1324 100.934 88.7256 101.256C88.3187 101.578 88.5378 103.247 89.8939 104.147C91.25 105.047 92.3836 105.758 93.1347 105.119C93.3636 104.893 93.5456 104.622 93.6694 104.32C93.7932 104.019 93.8562 103.694 93.8545 103.366Z" fill="#FF867A"/>
<path d="M107.136 99.1438C105.252 96.0757 103.123 93.1248 100.764 90.3125C100.764 90.3125 97.6408 90.7079 97.4032 94.1125C97.2704 96.0411 99.1325 100.149 100.607 102.708C101.878 102.56 105.581 101.045 107.136 99.1438Z" fill="#EAEAEA"/>
<path d="M100.709 102.705C100.673 102.705 100.637 102.696 100.605 102.679C100.573 102.662 100.546 102.638 100.526 102.608C98.3646 99.3461 97.4153 94.179 97.4057 94.1319C97.3968 94.1026 97.3943 94.0719 97.3984 94.0416C97.4025 94.0114 97.4131 93.9823 97.4295 93.9564C97.4459 93.9304 97.4676 93.9081 97.4934 93.891C97.5192 93.8738 97.5484 93.8622 97.579 93.8569C97.6097 93.8515 97.6413 93.8526 97.6715 93.86C97.7018 93.8674 97.73 93.8809 97.7545 93.8998C97.779 93.9187 97.7992 93.9424 97.8137 93.9694C97.8282 93.9964 97.8367 94.0261 97.8387 94.0565C97.8387 94.1068 98.8009 99.1891 100.895 102.375C100.913 102.4 100.926 102.427 100.933 102.457C100.94 102.486 100.94 102.517 100.934 102.546C100.928 102.576 100.916 102.604 100.898 102.628C100.88 102.653 100.857 102.674 100.831 102.689C100.793 102.706 100.75 102.712 100.709 102.705Z" fill="#B6B9BA"/>
<path d="M98.9602 97.3958C98.9263 97.3954 98.893 97.3884 98.8627 97.3753C98.1797 97.0447 97.4523 95.935 97.4227 95.8863C97.4096 95.8663 97.4012 95.8442 97.398 95.8214C97.3947 95.7986 97.3968 95.7754 97.4039 95.7532C97.4111 95.7311 97.4232 95.7104 97.4396 95.6923C97.4561 95.6742 97.4764 95.6591 97.4996 95.6479C97.5467 95.6249 97.6023 95.6189 97.6545 95.6314C97.7066 95.6439 97.7508 95.6738 97.7775 95.7146C97.9697 96.0119 98.5758 96.832 99.0607 97.0677C99.1008 97.0862 99.1325 97.1159 99.1506 97.1519C99.1687 97.188 99.1722 97.2283 99.1606 97.2663C99.1489 97.3043 99.1228 97.3378 99.0864 97.3613C99.0501 97.3848 99.0055 97.3969 98.9602 97.3958Z" fill="#B6B9BA"/>
<path d="M72.7205 101.822C72.7 101.823 72.6798 101.808 72.6627 101.78C72.6359 101.741 72.6164 101.677 72.6084 101.603C72.6005 101.528 72.6047 101.449 72.6201 101.382C73.0182 99.6876 73.3005 99.2217 73.3141 99.2048C73.3405 99.1671 73.3717 99.1564 73.4011 99.1748C73.4306 99.1932 73.4561 99.2394 73.4721 99.3036C73.4882 99.3677 73.4937 99.4449 73.4874 99.5189C73.481 99.5929 73.4635 99.6579 73.4383 99.7003C73.4383 99.7003 73.1815 100.124 72.8226 101.674C72.8122 101.719 72.7973 101.756 72.7794 101.782C72.7615 101.808 72.7412 101.822 72.7205 101.822Z" fill="#C66C67"/>
<path d="M106.947 108.906C106.912 108.906 106.878 108.897 106.849 108.879C106.819 108.861 106.795 108.835 106.78 108.805C106.129 107.542 103.737 106.612 103.712 106.601C103.689 106.592 103.668 106.579 103.65 106.562C103.633 106.546 103.618 106.526 103.609 106.504C103.599 106.482 103.594 106.458 103.594 106.434C103.594 106.41 103.598 106.386 103.608 106.364C103.627 106.319 103.663 106.284 103.708 106.265C103.754 106.246 103.806 106.245 103.852 106.263C103.956 106.303 106.401 107.254 107.115 108.642C107.126 108.664 107.133 108.687 107.135 108.711C107.137 108.735 107.134 108.759 107.126 108.782C107.119 108.805 107.106 108.826 107.09 108.844C107.074 108.862 107.054 108.877 107.032 108.888C107.006 108.9 106.977 108.906 106.947 108.906Z" fill="#C66C67"/>
<path d="M88.7638 80.5415C88.7638 80.5415 87.9658 78.7487 89.397 78.1647C89.6662 76.1678 91.6135 77.1882 92.4589 78.3405C93.3107 78.8963 93.9503 78.9496 93.8427 80.6545C93.7454 81.5515 93.4858 82.4236 93.0764 83.2292C93.0764 83.2292 89.4414 82.3061 88.7638 80.5415Z" fill="#CE4949"/>
<path d="M92.6682 81.458L93.8542 86.419C93.8284 87.0404 91.3952 88.1989 90.4605 87.364C90.1866 87.1213 90.3767 82.7686 90.3767 82.7686L92.6682 81.458Z" fill="#FF867A"/>
<path d="M92.0837 80.3446L91.6395 82.075C91.8283 82.8479 91.9893 83.7419 91.251 83.9611C90.6866 84.1256 90.0941 84.1581 89.5162 84.0562C88.8862 83.987 88.5531 83.3612 88.542 82.5018C88.5478 81.584 88.7046 80.674 89.0055 79.8111C89.2026 79.2343 89.5606 78.845 89.9964 78.8018C90.1407 79.2661 91.0484 79.9726 92.0837 80.3446Z" fill="#FF867A"/>
<path d="M89.5952 81.1223C89.3432 81.1734 88.7069 80.5151 88.5777 81.2661C88.4988 82.1074 88.5509 82.9561 88.7321 83.781C88.8004 84.081 88.9527 84.3546 89.1706 84.5689C89.3886 84.7832 89.6629 84.9291 89.9606 84.9889C90.5434 85.0656 91.8508 84.7333 92.191 84.3498C92.4351 84.0729 92.6148 83.744 92.7168 83.3872C92.8188 83.0305 92.8404 82.6551 92.7802 82.2887C92.6636 81.7454 92.6195 81.5409 92.5659 81.33C92.5123 81.1191 93.3692 79.7099 92.7329 79.6875C92.4777 79.6875 92.3076 81.4451 91.2995 81.2597C90.8553 81.1766 90.5183 80.9306 89.5952 81.1223Z" fill="#CE4949"/>
<path d="M90.3128 81.4809C89.7247 81.5508 89.1273 81.543 88.542 81.458C88.542 81.458 88.5692 82.1991 89.283 82.3336C89.7486 82.4223 90.1701 81.8929 90.3128 81.4809Z" fill="white"/>
<path d="M92.1369 80.8348C92.2427 80.6092 92.3366 80.3743 92.4179 80.1317C92.506 79.8587 92.6108 79.4538 92.8513 79.8587C93.2037 80.4425 92.687 81.5127 92.3536 81.4562C92.3016 81.4487 92.2521 81.4236 92.2097 81.3833C92.1672 81.3431 92.1335 81.289 92.1116 81.2264C92.0898 81.1638 92.0806 81.0948 92.0851 81.0262C92.0895 80.9576 92.1074 80.8916 92.1369 80.8348Z" fill="#FF867A"/>
<path d="M67.2803 89.1085C67.3125 88.9628 67.2779 88.8135 67.1817 88.6835C67.0855 88.5536 66.9331 88.4503 66.7481 88.3895C65.7008 88.0449 63.5413 87.4326 62.1767 87.74C61.3716 87.921 59.1712 88.04 59.3316 88.2953C59.4919 88.5507 61.5354 88.3375 61.5558 88.4143C61.5372 88.6529 61.606 88.8909 61.7553 89.1038C61.9045 89.3168 62.1288 89.4972 62.4053 89.6266C63.34 90.0381 66.1818 90.5439 66.7174 90.1968C67.0278 89.9935 67.195 89.4952 67.2803 89.1085Z" fill="#FF867A"/>
<path d="M94.2181 16.9429L60.7785 22.2781C58.1326 22.7086 55.7619 24.1839 54.1842 26.3821C52.6064 28.5802 51.9497 31.3226 52.3574 34.0104L55.5577 54.5987L55.0918 63.7495L68.1198 55.9156L99.4813 50.9151C102.127 50.4846 104.498 49.0092 106.076 46.8111C107.653 44.6129 108.31 41.8706 107.902 39.1828L105.785 25.4951C105.362 22.8075 103.908 20.3992 101.741 18.7966C99.5732 17.194 96.8685 16.5275 94.2181 16.9429Z" fill="#F95873"/>
<path d="M77.1874 43.3848C77.1874 43.3848 76.4311 45.0822 78.2472 45.8999C80.0633 46.7176 80.5729 43.715 80.5729 43.715L77.1874 43.3848Z" fill="#F2A25C"/>
<path d="M86.1812 42.7021C85.2323 41.6787 85.0899 40.9611 85.0899 40.9611C85.0899 40.9611 86.3843 30.7957 80.1032 30.1343C73.8222 29.4728 73.0886 39.6974 73.0886 39.6974C73.0886 39.6974 72.8067 40.3714 71.676 41.1763C71.3611 41.404 71.1084 41.7113 70.9424 42.0687C70.865 42.2363 70.8281 42.4206 70.8348 42.606C70.8415 42.7914 70.8916 42.9725 70.9809 43.1336C71.0702 43.2948 71.1961 43.4314 71.3477 43.5317C71.4994 43.632 71.6723 43.6932 71.8519 43.7099L78.6876 44.4275L85.5264 45.1482C85.7057 45.1692 85.8872 45.1453 86.0555 45.0785C86.2238 45.0117 86.3739 44.9039 86.493 44.7645C86.6121 44.625 86.6967 44.458 86.7396 44.2776C86.7824 44.0972 86.7822 43.9089 86.739 43.7286C86.642 43.3427 86.4498 42.9891 86.1812 42.7021Z" fill="#FFE164"/>
<path d="M81.5572 30.9873H81.5249C81.3562 30.9639 81.2045 30.8801 81.103 30.7543C81.0015 30.6284 80.9585 30.4708 80.9835 30.3159C81.1092 29.544 81.1091 28.2663 80.7192 27.8493C80.6889 27.8136 80.6496 27.7853 80.6047 27.7667C80.5597 27.7482 80.5106 27.74 80.4614 27.7428C79.5557 27.7428 79.243 29.5351 79.2076 30.0172C79.1965 30.1741 79.1179 30.3205 78.9891 30.4242C78.8604 30.5279 78.692 30.5805 78.5211 30.5703C78.3501 30.5601 78.1906 30.488 78.0775 30.3698C77.9645 30.2517 77.9072 30.0972 77.9184 29.9403C78.0086 28.6833 78.6404 26.5597 80.4549 26.5627C80.6897 26.5591 80.9224 26.6038 81.136 26.6933C81.3495 26.7829 81.5385 26.9151 81.6893 27.0803C82.5982 28.0504 82.3178 30.0911 82.2501 30.4934C82.2239 30.6408 82.1379 30.7736 82.0094 30.8652C81.8809 30.9568 81.7193 31.0004 81.5572 30.9873Z" fill="#FFE164"/>
<path d="M76.1465 34.1386C76.1966 33.4793 76.362 32.8535 76.6249 32.3288C76.8908 31.8364 77.2028 31.4085 77.5508 31.0594C77.8187 30.7707 78.0699 31.448 77.8044 31.733C77.2589 32.3177 76.7374 33.069 76.6465 34.1423C76.6435 34.2445 76.6158 34.3413 76.5688 34.4133C76.5218 34.4853 76.459 34.5273 76.3929 34.5309C76.2829 34.5309 76.1465 34.3496 76.1465 34.1386Z" fill="white"/>
<path d="M75.2724 35.8191C75.2872 35.7717 75.3123 35.7276 75.3462 35.6896C75.365 35.6287 75.3997 35.5731 75.4472 35.5276C75.5266 35.4591 75.63 35.4195 75.7384 35.416C75.8469 35.417 75.9506 35.4576 76.0269 35.529C76.1033 35.6005 76.1462 35.697 76.1462 35.7975C76.1451 35.8883 76.1198 35.9773 76.0724 36.0567C76.0448 36.1086 76.005 36.1541 75.9559 36.1898C75.9199 36.2263 75.8744 36.2536 75.8238 36.269C75.7754 36.2908 75.7223 36.3018 75.6685 36.3014C75.5601 36.2979 75.4567 36.2583 75.3773 36.1898C75.3396 36.1542 75.3099 36.112 75.2899 36.0657C75.2699 36.0193 75.26 35.9698 75.2608 35.9199L75.2724 35.8191Z" fill="white"/>
<path d="M87.2257 30.1035C87.1255 30.1041 87.0279 30.0677 86.9483 30C86.8688 29.9323 86.8118 29.8373 86.7863 29.7297C86.7608 29.6222 86.7683 29.5083 86.8076 29.406C86.8468 29.3037 86.9156 29.2188 87.0031 29.1646L89.6401 27.5112C89.7448 27.4462 89.8683 27.43 89.9837 27.4661C90.0992 27.5022 90.1969 27.5878 90.2555 27.7038C90.3141 27.8199 90.3287 27.957 90.2962 28.0851C90.2636 28.2131 90.1865 28.3215 90.0819 28.3865L87.4482 30.0362C87.3807 30.0801 87.304 30.1033 87.2257 30.1035Z" fill="white"/>
<path d="M90.7782 37.1786C90.747 37.1816 90.7154 37.1816 90.6842 37.1786L88.883 36.8722C88.8279 36.8659 88.7753 36.8516 88.7283 36.8302C88.6813 36.8089 88.6411 36.7809 88.6101 36.748C88.5792 36.7152 88.5582 36.6782 88.5483 36.6394C88.5385 36.6005 88.5401 36.5606 88.5531 36.5223C88.566 36.4839 88.59 36.4478 88.6236 36.4163C88.6572 36.3847 88.6996 36.3584 88.7482 36.339C88.7968 36.3196 88.8506 36.3074 88.9061 36.3033C88.9617 36.2992 89.0178 36.3032 89.0711 36.3152L90.8904 36.6216C90.9865 36.6385 91.0705 36.6797 91.1267 36.7374C91.1828 36.795 91.2072 36.8652 91.1953 36.9346C91.1834 37.0041 91.1359 37.0681 91.0619 37.1146C90.9879 37.1611 90.8924 37.1869 90.7934 37.1872L90.7782 37.1786Z" fill="white"/>
<path d="M71.2943 30.1035C71.2353 30.1036 71.177 30.0921 71.123 30.0697C71.069 30.0473 71.0206 30.0144 70.9808 29.9733L69.1718 28.1144C69.0966 28.0359 69.0574 27.9324 69.063 27.8266C69.0686 27.7209 69.1185 27.6215 69.2016 27.5505C69.2848 27.4794 69.3944 27.4425 69.5064 27.4478C69.6184 27.453 69.7236 27.5001 69.7989 27.5786L71.611 29.4375C71.6653 29.4949 71.701 29.5659 71.7136 29.6419C71.7263 29.718 71.7154 29.7959 71.6823 29.8662C71.6492 29.9366 71.5953 29.9964 71.527 30.0385C71.4587 30.0806 71.379 30.1032 71.2975 30.1035H71.2943Z" fill="white"/>
<path d="M65.8743 36.3014C65.7902 36.3022 65.7085 36.2769 65.6444 36.2301C65.5803 36.1833 65.538 36.1181 65.5253 36.0466C65.51 35.9669 65.532 35.8853 65.5865 35.8197C65.641 35.754 65.7236 35.7096 65.8161 35.6962L67.7462 35.4232C67.7932 35.4143 67.8417 35.4137 67.8889 35.4214C67.9361 35.4292 67.981 35.4451 68.0209 35.4683C68.0607 35.4915 68.0946 35.5214 68.1206 35.5562C68.1466 35.591 68.164 35.63 68.1719 35.6708C68.1799 35.7116 68.178 35.7533 68.1666 35.7935C68.1551 35.8337 68.1343 35.8714 68.1053 35.9045C68.0764 35.9375 68.0399 35.9651 67.9982 35.9856C67.9565 36.0062 67.9103 36.0191 67.8626 36.0238L65.9324 36.2991L65.8743 36.3014Z" fill="white"/>
<path d="M81.2206 25.6768H81.1102C80.9418 25.6578 80.7917 25.5966 80.6928 25.5066C80.5939 25.4166 80.5541 25.305 80.5819 25.1961L81.0621 23.3663C81.0766 23.3123 81.1075 23.2607 81.1528 23.2144C81.1982 23.1681 81.2572 23.1281 81.3266 23.0966C81.3959 23.065 81.4742 23.0426 81.5569 23.0306C81.6397 23.0186 81.7252 23.0173 81.8088 23.0267C81.8923 23.036 81.9722 23.0559 82.0438 23.0852C82.1154 23.1145 82.1775 23.1527 82.2263 23.1975C82.2752 23.2422 82.3099 23.2928 82.3284 23.3462C82.347 23.3997 82.349 23.4549 82.3345 23.5089L81.8544 25.3387C81.8255 25.4337 81.7466 25.5193 81.631 25.5809C81.5155 25.6426 81.3705 25.6764 81.2206 25.6768Z" fill="white"/>
<path d="M56.3266 41.6143C56.2449 41.6144 56.1658 41.5843 56.1039 41.5293C56.0421 41.4744 56.0015 41.3985 55.9898 41.3153C55.9898 41.265 55.3068 36.1984 54.97 33.1585C54.6209 29.9958 55.61 28.5167 55.6529 28.4569C55.7077 28.3903 55.7847 28.3471 55.8689 28.3359C55.9531 28.3247 56.0383 28.3463 56.1078 28.3964C56.1773 28.4465 56.226 28.5215 56.2444 28.6067C56.2628 28.6918 56.2495 28.781 56.2072 28.8566C56.2072 28.8818 55.3283 30.2192 55.6468 33.0798C55.9806 36.1103 56.6573 41.1674 56.6635 41.2209C56.6694 41.2674 56.6661 41.3146 56.6538 41.3598C56.6415 41.4049 56.6203 41.447 56.5917 41.4835C56.563 41.5199 56.5275 41.5501 56.4872 41.572C56.4469 41.594 56.4027 41.6073 56.3572 41.6111L56.3266 41.6143Z" fill="white"/>
<path d="M57.0382 27.4472C56.9406 27.4477 56.8467 27.4145 56.7762 27.3546C56.7416 27.3238 56.7141 27.2872 56.6954 27.2469C56.6766 27.2067 56.667 27.1635 56.667 27.12C56.667 27.0764 56.6766 27.0332 56.6954 26.993C56.7141 26.9527 56.7416 26.9162 56.7762 26.8854C57.8519 25.946 59.1545 25.2376 60.5845 24.8142C60.6326 24.7973 60.6841 24.7895 60.7357 24.7913C60.7874 24.793 60.838 24.8044 60.8845 24.8245C60.931 24.8446 60.9722 24.8731 61.0056 24.9082C61.0391 24.9433 61.0639 24.9842 61.0786 25.0283C61.0934 25.0724 61.0976 25.1187 61.0911 25.1643C61.0847 25.2099 61.0676 25.2539 61.0411 25.2933C61.0145 25.3328 60.979 25.3669 60.9368 25.3935C60.8946 25.42 60.8467 25.4385 60.7961 25.4478C59.4897 25.8426 58.2987 26.492 57.3102 27.3486C57.2746 27.3804 57.2322 27.4056 57.1855 27.4225C57.1387 27.4395 57.0886 27.4479 57.0382 27.4472Z" fill="white"/>
<path d="M120.477 64.5522L98.7246 57.8271L94.8263 70.436L116.578 77.1611L120.477 64.5522Z" fill="#687DE3"/>
<path d="M112.984 52.8358C112.818 52.5793 112.563 52.3887 112.266 52.2979C111.968 52.2071 111.646 52.2221 111.359 52.3404L98.2812 57.7419L107.361 67.2914L120.417 64.3852L112.984 52.8358Z" fill="#C7DBFF"/>
<path d="M106.932 56.3172C106.362 56.1323 105.762 56.0616 105.164 56.1091C104.567 56.1566 103.985 56.3214 103.451 56.5942C102.918 56.8669 102.443 57.2422 102.055 57.6985C101.667 58.1548 101.372 58.6832 101.188 59.2535L98.7139 66.8999L115.071 72.1943L118.949 60.2169L106.932 56.3172Z" fill="white"/>
<path d="M103.868 57.7395C104.478 56.944 105.341 56.3807 106.315 56.1429C105.398 55.9498 104.443 56.0556 103.59 56.4448C102.738 56.8339 102.032 57.486 101.577 58.3053C102.251 57.8535 103.062 57.6532 103.868 57.7395Z" fill="#E2E2E2"/>
<path d="M104.933 59.702L104.929 59.7166C104.884 59.8532 104.959 59.9997 105.096 60.0439L115.022 63.2557C115.159 63.2999 115.305 63.225 115.349 63.0884L115.354 63.0739C115.398 62.9372 115.323 62.7906 115.187 62.7464L105.261 59.5346C105.124 59.4904 104.978 59.5654 104.933 59.702Z" fill="#E2E2E2"/>
<path d="M104.524 60.9764L104.519 60.9909C104.475 61.1275 104.55 61.2741 104.687 61.3183L109.404 62.8446C109.541 62.8888 109.687 62.8139 109.731 62.6773L109.736 62.6628C109.78 62.5262 109.705 62.3796 109.569 62.3354L104.852 60.8091C104.715 60.7649 104.568 60.8398 104.524 60.9764Z" fill="#E2E2E2"/>
<path d="M104.108 62.2459L104.103 62.2605C104.059 62.3971 104.134 62.5436 104.271 62.5878L112.882 65.374C113.018 65.4182 113.165 65.3434 113.209 65.2068L113.214 65.1922C113.258 65.0556 113.183 64.909 113.046 64.8648L104.436 62.0786C104.299 62.0344 104.152 62.1093 104.108 62.2459Z" fill="#E2E2E2"/>
<path d="M110.657 62.9794C110.636 63.0469 110.588 63.1032 110.525 63.1358C110.462 63.1685 110.389 63.1749 110.321 63.1537C110.285 63.145 110.251 63.1289 110.222 63.1065C110.192 63.0841 110.168 63.0559 110.149 63.0236C110.131 62.9912 110.12 62.9555 110.117 62.9187C110.113 62.8818 110.117 62.8446 110.128 62.8094C110.14 62.7742 110.158 62.7416 110.183 62.7139C110.207 62.6862 110.237 62.6638 110.271 62.6482C110.304 62.6325 110.341 62.624 110.378 62.6231C110.415 62.6222 110.452 62.629 110.486 62.643C110.519 62.6537 110.55 62.671 110.577 62.6937C110.604 62.7165 110.626 62.7443 110.642 62.7756C110.658 62.8068 110.667 62.8409 110.67 62.8759C110.673 62.9109 110.668 62.9461 110.657 62.9794Z" fill="#E2E2E2"/>
<path d="M101.405 69.9127C101.329 69.9512 101.241 69.9585 101.16 69.9329C101.079 69.9072 101.012 69.8508 100.973 69.7761C100.934 69.7013 100.927 69.6142 100.953 69.5341C100.979 69.454 101.036 69.3873 101.111 69.3487L106.671 66.4418C106.746 66.4033 106.833 66.3957 106.913 66.4208C106.993 66.4459 107.061 66.5015 107.1 66.5755C107.138 66.6496 107.146 66.7359 107.121 66.8155C107.095 66.895 107.039 66.9614 106.964 67L101.405 69.9069V69.9127Z" fill="#468EAA"/>
<path d="M112.255 73.4572C112.177 73.4961 112.088 73.5001 112.008 73.4685C111.927 73.4369 111.861 73.3721 111.824 73.2881L108.94 66.926C108.902 66.8406 108.896 66.7422 108.924 66.6522C108.952 66.5622 109.011 66.4878 109.088 66.4451C109.127 66.4236 109.169 66.4107 109.213 66.4072C109.256 66.4037 109.3 66.4097 109.341 66.4249C109.382 66.44 109.42 66.4639 109.453 66.4953C109.486 66.5267 109.512 66.5649 109.532 66.6076L112.413 72.9696C112.432 73.0118 112.444 73.0578 112.447 73.1049C112.45 73.1521 112.445 73.1995 112.431 73.2443C112.417 73.2891 112.395 73.3305 112.366 73.3659C112.338 73.4013 112.303 73.4301 112.264 73.4506L112.255 73.4572Z" fill="#468EAA"/>
</svg>
